<?xml version="1.0" standalone="no"?>
<!DOCTYPE svg PUBLIC "-//W3C//DTD SVG 20010904//EN"
 "http://www.w3.org/TR/2001/REC-SVG-20010904/DTD/svg10.dtd">
<svg version="1.0" xmlns="http://www.w3.org/2000/svg"
 width="1711.000000pt" height="1711.000000pt" viewBox="0 0 1711.000000 1711.000000"
 preserveAspectRatio="xMidYMid meet">
<metadata>
Created by potrace 1.14, written by Peter Selinger 2001-2017
</metadata>
<g transform="translate(0.000000,1711.000000) scale(0.100000,-0.100000)"
fill="#000000" stroke="none">
<path d="M7612 16195 c-2988 -802 -3406 -912 -3431 -902 -23 8 -38 7 -69 -5
l-39 -15 -34 46 c-46 62 -92 79 -155 58 l-47 -15 -38 40 c-38 41 -39 41 -97
35 -57 -6 -59 -6 -76 24 -30 51 -107 72 -183 50 -27 -8 -33 -6 -38 8 -3 10
-19 31 -36 47 -27 25 -38 29 -105 32 -72 4 -78 6 -108 40 -28 30 -39 35 -82
36 -27 1 -60 -2 -74 -6 -21 -5 -28 -1 -45 25 -29 46 -88 65 -157 50 l-53 -12
-29 35 c-44 54 -98 77 -166 72 -54 -4 -57 -3 -69 24 -20 45 -77 68 -166 68
-41 0 -75 4 -75 10 0 5 -14 25 -31 45 -41 47 -90 60 -155 40 -26 -8 -48 -13
-49 -12 -26 70 -71 99 -145 94 -30 -2 -63 -7 -72 -11 -13 -6 -20 0 -32 28 -25
60 -61 86 -118 86 -27 0 -62 -7 -78 -15 -29 -15 -30 -15 -44 17 -7 18 -26 44
-41 58 -34 32 -102 34 -161 5 l-41 -21 -16 47 c-19 51 -85 119 -116 119 -18 0
-19 -14 -27 -217 -5 -120 -9 -2204 -9 -4632 l0 -4413 90 -32 c165 -59 387
-159 665 -297 359 -180 526 -270 1301 -700 639 -355 754 -412 934 -464 271
-78 704 -146 939 -147 50 0 595 43 1210 96 l1119 97 41 -27 c143 -94 382 -294
581 -486 155 -150 385 -397 428 -460 32 -48 36 -111 11 -164 -53 -110 -300
-244 -629 -339 l-130 -38 -295 6 c-1423 31 -2920 389 -4080 978 -156 79 -228
123 -360 220 -200 146 -577 399 -755 505 -405 242 -778 394 -966 394 -62 0
-71 -3 -104 -32 -61 -53 -78 -98 -73 -193 4 -74 9 -92 56 -186 113 -229 317
-447 852 -904 1864 -1597 3940 -2556 6130 -2834 1142 -145 2356 -86 3353 165
270 68 833 252 1245 408 1189 450 2238 1055 2836 1636 187 182 291 313 316
400 7 25 5 35 -11 51 -25 25 -26 25 -230 -72 -1230 -582 -2241 -794 -3139
-658 -514 78 -963 283 -1280 584 -323 307 -951 715 -1707 1110 -95 50 -173 93
-173 98 0 4 24 7 54 7 30 0 61 3 70 6 22 8 22 74 1 74 -13 0 -15 21 -15 131 0
203 68 5921 75 6305 l6 342 -31 11 c-23 8 -30 15 -27 28 19 66 16 63 68 63
l49 0 0 76 c0 67 2 76 20 81 10 3 22 13 25 23 3 10 24 36 45 58 41 40 70 95
70 131 0 30 -38 51 -92 51 -37 0 -48 4 -53 19 -10 33 -32 45 -60 33 -20 -9
-25 -9 -25 3 0 26 -31 46 -69 44 -22 -2 -47 4 -61 14 -15 11 -44 17 -76 17
-38 0 -55 5 -69 20 -20 23 -139 70 -176 70 -14 0 -30 -5 -36 -11 -7 -7 -19 -3
-38 16 -33 30 -65 40 -100 31 -18 -5 -32 -1 -47 13 -11 11 -46 26 -77 32 -31
7 -65 18 -76 26 -11 7 -31 13 -46 13 -14 0 -34 9 -43 19 -10 11 -30 22 -44 26
-18 5 367 74 1203 216 677 114 1236 208 1243 208 9 1 12 -832 12 -4134 0
-2274 1 -4135 3 -4135 2 0 397 -25 878 -55 481 -31 1009 -60 1174 -66 165 -5
328 -12 361 -15 59 -5 86 2 710 207 357 117 651 216 652 221 2 4 42 8 88 8 72
0 92 4 137 27 49 25 71 28 390 54 187 15 340 29 341 31 1 2 -2 185 -5 407 l-7
404 -27 49 -28 50 -73 2582 c-40 1419 -77 2768 -81 2996 l-8 414 -145 82 c-80
46 -148 83 -152 83 -5 1 -8 -152 -8 -338 l0 -339 27 -7 c47 -11 167 -71 192
-95 20 -19 23 -30 19 -71 -3 -26 -12 -59 -21 -73 -14 -21 -168 -106 -193 -106
-5 0 -19 -16 -32 -35 -31 -48 -93 -91 -152 -105 -28 -7 -48 -16 -45 -20 3 -5
1 -11 -5 -15 -6 -4 -10 10 -10 35 0 39 -5 46 -82 118 -89 84 -138 152 -138
191 0 67 1 66 -281 203 l-269 131 40 29 c22 17 40 32 40 34 0 2 -39 -16 -87
-40 -49 -25 -101 -48 -118 -52 -16 -4 -52 -25 -78 -46 -43 -33 -56 -38 -101
-38 -29 0 -86 9 -127 20 -125 34 -127 34 -131 14 -3 -14 -7 -9 -14 16 -9 31
-22 41 -142 105 -142 77 -214 131 -263 199 -18 25 -37 42 -44 40 -15 -6 -101
94 -140 163 l-27 48 -367 148 c-201 82 -381 151 -399 154 -30 5 -39 0 -108
-70 l-75 -75 -50 16 -50 16 -25 -27 c-16 -18 -35 -27 -54 -27 -29 0 -30 2 -30
45 0 38 -3 45 -19 45 -30 0 -138 125 -231 268 -47 72 -89 131 -95 131 -17 2
-125 94 -125 107 0 6 -81 40 -184 75 l-183 64 -7 74 c-8 100 -8 181 2 181 4 0
119 -36 256 -80 137 -44 252 -78 254 -75 3 2 7 199 10 438 l5 434 -266 141
c-146 78 -268 142 -271 142 -3 0 -6 -132 -6 -292 0 -161 -3 -383 -7 -493 l-6
-201 -1531 -268 -1531 -269 -37 37 c-36 36 -61 44 -87 27 -9 -6 -22 1 -43 25
-26 30 -36 34 -77 34 -38 0 -52 5 -71 25 -19 21 -33 25 -76 25 -45 0 -57 4
-84 31 -28 29 -35 31 -80 27 -45 -5 -50 -3 -70 24 -20 27 -26 29 -71 26 -27
-1 -49 1 -49 5 0 4 -11 19 -25 32 -26 27 -80 34 -115 15 -15 -8 -20 -6 -25 10
-15 46 -94 76 -134 51 -10 -6 -25 2 -51 30 -32 34 -43 39 -82 39 -37 0 -47 4
-58 24 -19 37 -64 52 -112 39 -39 -10 -41 -10 -75 28 -37 41 -88 63 -131 57
-17 -2 -34 3 -44 14 -10 10 -16 18 -13 18 13 0 4671 992 4677 996 5 3 8 31 9
62 2 117 -19 121 279 -51 l265 -154 5 96 5 96 332 -200 332 -200 3 -48 3 -49
455 -244 c250 -134 460 -243 467 -244 6 0 13 13 15 30 l3 30 447 -248 447
-247 1 -47 0 -48 350 -175 350 -175 0 -80 0 -80 -344 172 c-190 95 -347 170
-349 168 -2 -3 -2 -168 1 -368 l4 -363 166 -80 c91 -43 168 -82 171 -85 3 -3
-9 -18 -27 -33 l-32 -28 202 -92 c112 -50 206 -91 211 -91 4 0 7 145 7 323 0
177 3 406 7 508 l6 186 201 -103 201 -103 3 -38 c3 -39 3 -39 160 -130 l157
-91 3 183 2 183 113 7 c61 4 119 10 128 14 23 8 369 334 369 346 -1 15 -5016
3110 -5042 3112 -13 1 -1554 -409 -3426 -912z m-4047 -2351 c523 -152 951
-278 953 -279 6 -5 -21 -1930 -27 -1937 -4 -5 -1952 398 -1968 407 -4 2 56
1890 63 2002 4 63 9 90 17 88 7 -2 440 -129 962 -281z m3830 -1109 c314 -98
574 -181 578 -185 7 -6 -19 -1610 -27 -1617 -3 -3 -1324 247 -1333 252 -1 0 7
385 17 855 11 470 20 871 20 891 l0 37 88 -27 c48 -15 344 -108 657 -206z
m5833 133 c25 -112 43 -253 36 -277 -4 -15 -6 -37 -5 -50 2 -13 -3 -35 -10
-48 -11 -21 -10 -33 10 -89 20 -56 22 -76 16 -140 -6 -71 2 -94 22 -61 4 8 35
32 68 54 l60 40 237 17 c163 12 242 14 255 7 64 -34 147 -166 219 -351 l33
-85 -2 75 c-2 41 -9 86 -17 100 -21 39 -21 154 0 235 10 38 21 96 25 127 3 32
10 60 15 63 10 6 16 -18 30 -125 6 -47 18 -114 26 -148 8 -35 11 -69 8 -74 -7
-12 -8 -13 -19 -185 l-8 -111 44 -22 c75 -37 219 -124 219 -132 0 -4 -20 -21
-45 -38 -25 -17 -49 -40 -55 -50 -6 -11 -28 -29 -50 -40 -51 -26 -56 -38 -65
-141 l-7 -86 72 -30 72 -30 -35 -34 c-18 -19 -44 -41 -56 -49 l-23 -15 11
-506 c7 -312 15 -517 22 -536 6 -18 18 -76 28 -129 l17 -98 93 -27 c51 -14 96
-30 101 -35 5 -5 27 -55 50 -112 39 -98 42 -109 51 -260 11 -187 25 -266 53
-299 l21 -24 -25 -307 c-25 -304 -25 -314 -19 -1102 4 -437 10 -911 14 -1052
l8 -258 -31 0 c-17 0 -53 5 -80 11 l-49 10 5 1198 5 1198 -24 6 c-67 15 -1271
199 -1276 194 -3 -3 2 -612 12 -1352 9 -741 14 -1349 11 -1352 -2 -2 -126 -1
-274 3 l-270 7 -6 106 c-26 457 -82 3603 -65 3651 6 14 31 56 57 94 l47 69 -3
123 c-3 121 -3 124 22 149 15 15 30 23 35 20 6 -3 11 12 13 32 3 32 7 38 29
41 l26 3 6 136 c4 75 7 204 7 287 0 141 -2 154 -25 200 -29 57 -33 126 -10
170 19 36 19 77 0 102 -9 12 -14 42 -15 81 0 54 3 62 21 68 21 7 22 10 15 132
-6 104 -10 127 -27 144 -10 10 -19 25 -19 33 0 7 -11 21 -25 30 -22 15 -25 23
-25 78 l0 61 85 -6 c57 -4 85 -3 85 4 0 35 36 82 77 100 24 10 46 25 49 32 3
8 -5 31 -16 51 -18 30 -19 36 -6 36 9 0 21 19 32 55 17 54 17 55 -3 77 l-21
23 24 35 24 35 -22 17 -22 16 38 139 c21 76 43 144 48 151 17 20 34 -2 46 -60z
m-1218 -339 c19 -24 79 -87 133 -141 l97 -97 0 -56 c0 -53 -1 -55 -24 -49
l-24 6 -6 -164 c-4 -90 -6 -519 -4 -953 3 -758 2 -792 -16 -819 l-18 -29 -122
7 c-139 7 -294 29 -379 53 -79 22 -129 69 -151 142 -20 68 -20 118 -4 1185 11
788 11 819 -7 832 -10 7 -22 15 -27 16 -6 2 -6 20 1 46 l12 42 117 1 c64 0
155 7 202 14 47 7 107 12 135 10 45 -2 53 -6 85 -46z m-3367 -183 c115 -35
210 -66 211 -68 7 -7 14 -1538 8 -1538 -10 0 -477 93 -480 96 -4 3 26 1260 34
1442 3 72 9 132 13 132 3 0 100 -29 214 -64z m6472 -928 c14 -6 35 -26 46 -44
11 -18 51 -62 90 -97 64 -60 69 -68 69 -107 0 -37 -2 -41 -20 -35 -19 6 -20 2
-20 -132 -3 -1248 -5 -1382 -22 -1400 -16 -16 -28 -16 -147 -5 -255 23 -318
50 -347 148 -14 49 -14 129 -4 816 6 420 8 764 3 765 -27 10 -33 21 -27 51 l7
32 116 1 c64 0 134 4 156 8 58 12 71 12 100 -1z m-11610 -2204 c528 -42 961
-77 963 -79 3 -3 -50 -2059 -53 -2063 -3 -3 -2017 -19 -2023 -16 -4 2 59 2174
64 2212 5 32 6 33 47 28 23 -3 474 -40 1002 -82z m8345 -200 c275 -21 491 -49
528 -68 20 -10 39 -34 55 -68 25 -54 53 -155 45 -163 -2 -3 -20 0 -39 5 -57
17 -57 17 -53 -77 2 -49 6 -398 8 -776 l4 -689 -72 6 c-39 3 -237 9 -440 12
l-369 6 7 828 7 827 -45 13 c-25 7 -46 17 -46 23 0 22 45 80 86 111 36 28 51
33 82 30 20 -2 129 -11 242 -20z m-4643 -129 c358 -30 659 -55 670 -55 17 0
18 -20 16 -532 -2 -293 -6 -687 -9 -875 l-6 -343 -198 0 -198 0 -75 93 c-41
50 -85 102 -98 114 -86 79 -229 69 -375 -26 -72 -46 -181 -145 -189 -172 -6
-18 -17 -19 -152 -19 l-146 0 6 368 c4 202 9 601 12 887 3 286 8 543 11 571
l5 52 37 -4 c20 -3 330 -29 689 -59z m1376 -74 c114 -10 210 -21 213 -24 6 -6
-34 -1699 -41 -1706 -5 -4 -478 -21 -482 -17 -1 1 10 398 25 884 l26 882 26 0
c14 0 118 -9 233 -19z m6462 -257 c162 -16 176 -22 201 -81 21 -49 18 -61 -13
-55 l-26 5 6 -630 6 -630 -220 -8 c-121 -4 -222 -5 -223 -3 -4 3 -26 1169 -26
1326 l0 102 73 -6 c39 -3 139 -12 222 -20z"/>
<path d="M13747 12019 c-52 -40 -73 -191 -42 -295 55 -185 189 -76 172 141 -6
78 -34 147 -66 165 -27 14 -35 13 -64 -11z"/>
<path d="M13382 10908 l3 -583 345 -72 c190 -39 359 -74 376 -77 l30 -6 13
535 c8 295 12 537 10 539 -8 7 -749 246 -764 246 -13 0 -15 -65 -13 -582z"/>
<path d="M11577 11573 c-4 -256 -7 -559 -7 -672 l0 -206 231 -53 c128 -29 234
-50 237 -47 6 6 42 1257 37 1263 -5 5 -476 182 -485 182 -4 0 -10 -210 -13
-467z"/>
<path d="M14825 10837 c-3 -62 -5 -290 -3 -506 l3 -395 169 -39 c117 -27 171
-36 175 -28 4 6 12 219 18 474 9 350 8 464 0 469 -7 4 -68 28 -137 54 -69 26
-146 55 -172 65 l-46 18 -7 -112z"/>
<path d="M12195 14352 c4 -246 10 -448 13 -450 209 -99 297 -149 302 -171 5
-20 26 -33 130 -76 69 -29 183 -80 255 -114 71 -34 135 -59 143 -56 7 2 11 1
8 -4 -3 -4 7 -13 22 -20 26 -11 26 -11 7 5 -20 17 -16 17 30 -2 13 -5 15 47
15 435 l0 441 -172 86 c-95 48 -305 151 -467 230 l-294 144 8 -448z"/>
</g>
</svg>
